<svg width="92" height="56" viewBox="0 0 92 56" fill="none" xmlns="http://www.w3.org/2000/svg">
<path d="M2.85071 52.7389C4.55461 52.6492 6.5477 51.9244 8.15767 51.433C10.8134 50.6225 13.3003 49.3697 15.7152 48.0154C19.673 45.7959 23.6692 43.3852 26.6487 39.9022C28.0194 38.2997 31.0554 35.1423 30.5525 32.678C30.2398 31.1456 28.4931 29.85 26.996 29.7467C25.529 29.6455 24.34 29.7492 23.245 30.8442C21.9559 32.1334 20.4041 34.838 21.0222 36.7486C21.7416 38.9723 24.2401 39.5951 26.1624 40.4301C28.9779 41.653 32.7367 42.0963 35.7622 42.2083C44.743 42.541 52.8081 39.9665 60.1159 34.6925C68.9486 28.3179 74.8301 18.707 78.7042 8.67168C78.8418 8.31505 80.3509 5.51784 79.1626 5.69867C75.6812 6.22845 72.248 7.64093 68.8126 8.4355C66.1812 9.04414 63.5121 9.39685 60.8661 9.92201C59.765 10.1406 59.7788 10.4255 60.6716 10.1165C67.4936 7.75505 74.602 6.03826 81.5382 4.03156C82.3217 3.80491 85.2822 2.39792 86.2617 2.78123C86.5293 2.88594 86.7888 4.0799 86.873 4.3372C88.1105 8.11854 88.4867 12.2516 88.3456 16.2015C88.2397 19.1671 86.873 24.9816 86.873 24.9816" stroke="white" stroke-width="5.4013" stroke-linecap="round"/>
</svg>
